  0
SECTION
  2
HEADER
  9
$ACADVER
  1
AC1009
  9
$MEASUREMENT
 70
     1
  0
ENDSEC
  0
SECTION
  2
ENTITIES
  0
LWPOLYLINE
  8
0
 62
7
 90
5
 70
1
 10
48.000000
 20
70.398438
 10
47.101562
 20
70.398438
 10
47.101562
 20
68.801562
 10
48.898438
 20
68.801562
 10
48.898438
 20
70.398438
  0
LWPOLYLINE
  8
0
 62
7
 90
5
 70
1
 10
48.000000
 20
73.198438
 10
47.101562
 20
73.198438
 10
47.101562
 20
71.601562
 10
48.898438
 20
71.601562
 10
48.898438
 20
73.198438
  0
LWPOLYLINE
  8
0
 62
7
 90
5
 70
1
 10
48.000000
 20
58.398438
 10
47.101562
 20
58.398438
 10
47.101562
 20
56.801563
 10
48.898438
 20
56.801563
 10
48.898438
 20
58.398438
  0
LWPOLYLINE
  8
0
 62
7
 90
5
 70
1
 10
48.000000
 20
61.198437
 10
47.101562
 20
61.198437
 10
47.101562
 20
59.601562
 10
48.898438
 20
59.601562
 10
48.898438
 20
61.198437
  0
LWPOLYLINE
  8
0
 62
7
 90
5
 70
1
 10
48.000000
 20
46.398438
 10
47.101562
 20
46.398438
 10
47.101562
 20
44.801563
 10
48.898438
 20
44.801563
 10
48.898438
 20
46.398438
  0
LWPOLYLINE
  8
0
 62
7
 90
5
 70
1
 10
48.000000
 20
49.198437
 10
47.101562
 20
49.198437
 10
47.101562
 20
47.601562
 10
48.898438
 20
47.601562
 10
48.898438
 20
49.198437
  0
LWPOLYLINE
  8
0
 62
7
 90
5
 70
1
 10
48.000000
 20
34.398438
 10
47.101562
 20
34.398438
 10
47.101562
 20
32.801563
 10
48.898438
 20
32.801563
 10
48.898438
 20
34.398438
  0
LWPOLYLINE
  8
0
 62
7
 90
5
 70
1
 10
48.000000
 20
37.198437
 10
47.101562
 20
37.198437
 10
47.101562
 20
35.601562
 10
48.898438
 20
35.601562
 10
48.898438
 20
37.198437
  0
LWPOLYLINE
  8
0
 62
7
 90
5
 70
1
 10
34.801563
 20
28.100000
 10
34.801563
 20
27.201563
 10
36.398438
 20
27.201563
 10
36.398438
 20
28.998438
 10
34.801563
 20
28.998438
  0
LWPOLYLINE
  8
0
 62
7
 90
5
 70
1
 10
32.001562
 20
28.100000
 10
32.001562
 20
27.201563
 10
33.598437
 20
27.201563
 10
33.598437
 20
28.998438
 10
32.001562
 20
28.998438
  0
LWPOLYLINE
  8
0
 62
7
 90
5
 70
1
 10
29.401563
 20
28.100000
 10
29.401563
 20
27.201563
 10
30.998437
 20
27.201563
 10
30.998437
 20
28.998438
 10
29.401563
 20
28.998438
  0
LWPOLYLINE
  8
0
 62
7
 90
5
 70
1
 10
26.601562
 20
28.100000
 10
26.601562
 20
27.201563
 10
28.198437
 20
27.201563
 10
28.198437
 20
28.998438
 10
26.601562
 20
28.998438
  0
LWPOLYLINE
  8
0
 62
7
 90
5
 70
1
 10
23.900000
 20
50.901563
 10
24.798437
 20
50.901563
 10
24.798437
 20
52.498438
 10
23.001562
 20
52.498438
 10
23.001562
 20
50.901563
  0
LWPOLYLINE
  8
0
 62
7
 90
5
 70
1
 10
23.900000
 20
48.101562
 10
24.798437
 20
48.101562
 10
24.798437
 20
49.698437
 10
23.001562
 20
49.698437
 10
23.001562
 20
48.101562
  0
LWPOLYLINE
  8
0
 62
7
 90
5
 70
1
 10
60.500000
 20
23.498438
 10
59.301563
 20
23.498438
 10
59.301563
 20
21.101562
 10
61.698437
 20
21.101562
 10
61.698437
 20
23.498438
  0
LWPOLYLINE
  8
0
 62
7
 90
5
 70
1
 10
60.500000
 20
26.101562
 10
61.698437
 20
26.101562
 10
61.698437
 20
28.498438
 10
59.301563
 20
28.498438
 10
59.301563
 20
26.101562
  0
LWPOLYLINE
  8
0
 62
7
 90
5
 70
1
 10
72.000000
 20
22.148438
 10
70.601562
 20
22.148438
 10
70.601562
 20
19.751562
 10
73.398438
 20
19.751562
 10
73.398438
 20
22.148438
  0
LWPOLYLINE
  8
0
 62
7
 90
5
 70
1
 10
72.000000
 20
26.051562
 10
73.398438
 20
26.051562
 10
73.398438
 20
28.448438
 10
70.601562
 20
28.448438
 10
70.601562
 20
26.051562
  0
LWPOLYLINE
  8
0
 62
7
 90
5
 70
1
 10
11.398438
 20
37.000000
 10
11.398438
 20
37.898438
 10
9.801562
 20
37.898438
 10
9.801562
 20
36.101562
 10
11.398438
 20
36.101562
  0
LWPOLYLINE
  8
0
 62
7
 90
5
 70
1
 10
14.198438
 20
37.000000
 10
14.198438
 20
37.898438
 10
12.601562
 20
37.898438
 10
12.601562
 20
36.101562
 10
14.198438
 20
36.101562
  0
LWPOLYLINE
  8
0
 62
7
 90
5
 70
1
 10
64.296638
 20
20.401200
 10
64.296638
 20
21.517238
 10
63.080562
 20
21.517238
 10
63.080562
 20
19.285162
 10
64.296638
 20
19.285162
  0
LWPOLYLINE
  8
0
 62
7
 90
5
 70
1
 10
66.608037
 20
20.401200
 10
66.608037
 20
21.517238
 10
65.391963
 20
21.517238
 10
65.391963
 20
19.285162
 10
66.608037
 20
19.285162
  0
LWPOLYLINE
  8
0
 62
7
 90
5
 70
1
 10
68.919438
 20
20.401200
 10
68.919438
 20
21.517238
 10
67.703363
 20
21.517238
 10
67.703363
 20
19.285162
 10
68.919438
 20
19.285162
  0
LWPOLYLINE
  8
0
 62
7
 90
5
 70
1
 10
67.798438
 20
26.599000
 10
67.798438
 20
27.697437
 10
64.201562
 20
27.697437
 10
64.201562
 20
25.500563
 10
67.798438
 20
25.500563
  0
LWPOLYLINE
  8
0
 62
7
 90
5
 70
1
 10
82.076562
 20
2.500000
 10
82.076562
 20
1.651563
 10
82.923438
 20
1.651563
 10
82.923438
 20
3.348438
 10
82.076562
 20
3.348438
  0
LWPOLYLINE
  8
0
 62
7
 90
5
 70
1
 10
84.076562
 20
5.500000
 10
84.076562
 20
4.651562
 10
84.923438
 20
4.651562
 10
84.923438
 20
6.348438
 10
84.076562
 20
6.348438
  0
LWPOLYLINE
  8
0
 62
7
 90
5
 70
1
 10
86.076562
 20
2.500000
 10
86.076562
 20
1.651563
 10
86.923438
 20
1.651563
 10
86.923438
 20
3.348438
 10
86.076562
 20
3.348438
  0
LWPOLYLINE
  8
0
 62
7
 90
5
 70
1
 10
88.076562
 20
5.500000
 10
88.076562
 20
4.651562
 10
88.923438
 20
4.651562
 10
88.923438
 20
6.348438
 10
88.076562
 20
6.348438
  0
LWPOLYLINE
  8
0
 62
7
 90
5
 70
1
 10
90.076562
 20
2.500000
 10
90.076562
 20
1.651563
 10
90.923438
 20
1.651563
 10
90.923438
 20
3.348438
 10
90.076562
 20
3.348438
  0
LWPOLYLINE
  8
0
 62
7
 90
5
 70
1
 10
92.076562
 20
5.500000
 10
92.076562
 20
4.651562
 10
92.923438
 20
4.651562
 10
92.923438
 20
6.348438
 10
92.076562
 20
6.348438
  0
LWPOLYLINE
  8
0
 62
7
 90
5
 70
1
 10
94.076562
 20
2.500000
 10
94.076562
 20
1.651563
 10
94.923438
 20
1.651563
 10
94.923438
 20
3.348438
 10
94.076562
 20
3.348438
  0
LWPOLYLINE
  8
0
 62
7
 90
5
 70
1
 10
96.076562
 20
5.500000
 10
96.076562
 20
4.651562
 10
96.923438
 20
4.651562
 10
96.923438
 20
6.348438
 10
96.076562
 20
6.348438
  0
LWPOLYLINE
  8
0
 62
7
 90
5
 70
1
 10
98.076562
 20
2.500000
 10
98.076562
 20
1.651563
 10
98.923438
 20
1.651563
 10
98.923438
 20
3.348438
 10
98.076562
 20
3.348438
  0
LWPOLYLINE
  8
0
 62
7
 90
5
 70
1
 10
100.076562
 20
5.500000
 10
100.076562
 20
4.651562
 10
100.923438
 20
4.651562
 10
100.923438
 20
6.348438
 10
100.076562
 20
6.348438
  0
LWPOLYLINE
  8
0
 62
7
 90
5
 70
1
 10
100.076562
 20
27.500000
 10
100.076562
 20
26.651563
 10
100.923438
 20
26.651563
 10
100.923438
 20
28.348437
 10
100.076562
 20
28.348437
  0
LWPOLYLINE
  8
0
 62
7
 90
5
 70
1
 10
98.076562
 20
24.500000
 10
98.076562
 20
23.651563
 10
98.923438
 20
23.651563
 10
98.923438
 20
25.348437
 10
98.076562
 20
25.348437
  0
LWPOLYLINE
  8
0
 62
7
 90
5
 70
1
 10
96.076562
 20
27.500000
 10
96.076562
 20
26.651563
 10
96.923438
 20
26.651563
 10
96.923438
 20
28.348437
 10
96.076562
 20
28.348437
  0
LWPOLYLINE
  8
0
 62
7
 90
5
 70
1
 10
94.076562
 20
24.500000
 10
94.076562
 20
23.651563
 10
94.923438
 20
23.651563
 10
94.923438
 20
25.348437
 10
94.076562
 20
25.348437
  0
LWPOLYLINE
  8
0
 62
7
 90
5
 70
1
 10
92.076562
 20
27.500000
 10
92.076562
 20
26.651563
 10
92.923438
 20
26.651563
 10
92.923438
 20
28.348437
 10
92.076562
 20
28.348437
  0
LWPOLYLINE
  8
0
 62
7
 90
5
 70
1
 10
90.076562
 20
24.500000
 10
90.076562
 20
23.651563
 10
90.923438
 20
23.651563
 10
90.923438
 20
25.348437
 10
90.076562
 20
25.348437
  0
LWPOLYLINE
  8
0
 62
7
 90
5
 70
1
 10
88.076562
 20
27.500000
 10
88.076562
 20
26.651563
 10
88.923438
 20
26.651563
 10
88.923438
 20
28.348437
 10
88.076562
 20
28.348437
  0
LWPOLYLINE
  8
0
 62
7
 90
5
 70
1
 10
86.076562
 20
24.500000
 10
86.076562
 20
23.651563
 10
86.923438
 20
23.651563
 10
86.923438
 20
25.348437
 10
86.076562
 20
25.348437
  0
LWPOLYLINE
  8
0
 62
7
 90
5
 70
1
 10
84.076562
 20
27.500000
 10
84.076562
 20
26.651563
 10
84.923438
 20
26.651563
 10
84.923438
 20
28.348437
 10
84.076562
 20
28.348437
  0
LWPOLYLINE
  8
0
 62
7
 90
5
 70
1
 10
82.076562
 20
24.500000
 10
82.076562
 20
23.651563
 10
82.923438
 20
23.651563
 10
82.923438
 20
25.348437
 10
82.076562
 20
25.348437
  0
LWPOLYLINE
  8
0
 62
7
 90
5
 70
1
 10
45.000000
 20
34.398438
 10
44.101562
 20
34.398438
 10
44.101562
 20
32.801563
 10
45.898438
 20
32.801563
 10
45.898438
 20
34.398438
  0
LWPOLYLINE
  8
0
 62
7
 90
5
 70
1
 10
45.000000
 20
37.198437
 10
44.101562
 20
37.198437
 10
44.101562
 20
35.601562
 10
45.898438
 20
35.601562
 10
45.898438
 20
37.198437
  0
LWPOLYLINE
  8
0
 62
7
 90
5
 70
1
 10
20.700000
 20
37.440838
 10
20.422162
 20
37.440838
 10
20.422162
 20
36.173963
 10
20.977837
 20
36.173963
 10
20.977837
 20
37.440838
  0
LWPOLYLINE
  8
0
 62
7
 90
5
 70
1
 10
21.500000
 20
37.440838
 10
21.222162
 20
37.440838
 10
21.222162
 20
36.173963
 10
21.777838
 20
36.173963
 10
21.777838
 20
37.440838
  0
LWPOLYLINE
  8
0
 62
7
 90
5
 70
1
 10
22.300000
 20
37.440838
 10
22.022163
 20
37.440838
 10
22.022163
 20
36.173963
 10
22.577838
 20
36.173963
 10
22.577838
 20
37.440838
  0
LWPOLYLINE
  8
0
 62
7
 90
5
 70
1
 10
23.100000
 20
37.440838
 10
22.822163
 20
37.440838
 10
22.822163
 20
36.173963
 10
23.377838
 20
36.173963
 10
23.377838
 20
37.440838
  0
LWPOLYLINE
  8
0
 62
7
 90
5
 70
1
 10
23.900000
 20
37.440838
 10
23.622162
 20
37.440838
 10
23.622162
 20
36.173963
 10
24.177837
 20
36.173963
 10
24.177837
 20
37.440838
  0
LWPOLYLINE
  8
0
 62
7
 90
5
 70
1
 10
24.700000
 20
37.440838
 10
24.422162
 20
37.440838
 10
24.422162
 20
36.173963
 10
24.977837
 20
36.173963
 10
24.977837
 20
37.440838
  0
LWPOLYLINE
  8
0
 62
7
 90
5
 70
1
 10
25.500000
 20
37.440838
 10
25.222162
 20
37.440838
 10
25.222162
 20
36.173963
 10
25.777838
 20
36.173963
 10
25.777838
 20
37.440838
  0
LWPOLYLINE
  8
0
 62
7
 90
5
 70
1
 10
26.300000
 20
37.440838
 10
26.022163
 20
37.440838
 10
26.022163
 20
36.173963
 10
26.577838
 20
36.173963
 10
26.577838
 20
37.440838
  0
LWPOLYLINE
  8
0
 62
7
 90
5
 70
1
 10
27.792600
 20
38.577837
 10
27.159163
 20
38.577837
 10
27.159163
 20
38.022163
 10
28.426037
 20
38.022163
 10
28.426037
 20
38.577837
  0
LWPOLYLINE
  8
0
 62
7
 90
5
 70
1
 10
27.792600
 20
39.377837
 10
27.159163
 20
39.377837
 10
27.159163
 20
38.822163
 10
28.426037
 20
38.822163
 10
28.426037
 20
39.377837
  0
LWPOLYLINE
  8
0
 62
7
 90
5
 70
1
 10
27.792600
 20
40.177837
 10
27.159163
 20
40.177837
 10
27.159163
 20
39.622163
 10
28.426037
 20
39.622163
 10
28.426037
 20
40.177837
  0
LWPOLYLINE
  8
0
 62
7
 90
5
 70
1
 10
27.792600
 20
40.977837
 10
27.159163
 20
40.977837
 10
27.159163
 20
40.422163
 10
28.426037
 20
40.422163
 10
28.426037
 20
40.977837
  0
LWPOLYLINE
  8
0
 62
7
 90
5
 70
1
 10
27.792600
 20
41.777837
 10
27.159163
 20
41.777837
 10
27.159163
 20
41.222163
 10
28.426037
 20
41.222163
 10
28.426037
 20
41.777837
  0
LWPOLYLINE
  8
0
 62
7
 90
5
 70
1
 10
27.792600
 20
42.577837
 10
27.159163
 20
42.577837
 10
27.159163
 20
42.022163
 10
28.426037
 20
42.022163
 10
28.426037
 20
42.577837
  0
LWPOLYLINE
  8
0
 62
7
 90
5
 70
1
 10
27.792600
 20
43.377837
 10
27.159163
 20
43.377837
 10
27.159163
 20
42.822163
 10
28.426037
 20
42.822163
 10
28.426037
 20
43.377837
  0
LWPOLYLINE
  8
0
 62
7
 90
5
 70
1
 10
27.792600
 20
44.177837
 10
27.159163
 20
44.177837
 10
27.159163
 20
43.622163
 10
28.426037
 20
43.622163
 10
28.426037
 20
44.177837
  0
LWPOLYLINE
  8
0
 62
7
 90
5
 70
1
 10
26.300000
 20
46.026038
 10
26.022163
 20
46.026038
 10
26.022163
 20
44.759163
 10
26.577838
 20
44.759163
 10
26.577838
 20
46.026038
  0
LWPOLYLINE
  8
0
 62
7
 90
5
 70
1
 10
25.500000
 20
46.026038
 10
25.222162
 20
46.026038
 10
25.222162
 20
44.759163
 10
25.777838
 20
44.759163
 10
25.777838
 20
46.026038
  0
LWPOLYLINE
  8
0
 62
7
 90
5
 70
1
 10
24.700000
 20
46.026038
 10
24.422162
 20
46.026038
 10
24.422162
 20
44.759163
 10
24.977837
 20
44.759163
 10
24.977837
 20
46.026038
  0
LWPOLYLINE
  8
0
 62
7
 90
5
 70
1
 10
23.900000
 20
46.026038
 10
23.622162
 20
46.026038
 10
23.622162
 20
44.759163
 10
24.177837
 20
44.759163
 10
24.177837
 20
46.026038
  0
LWPOLYLINE
  8
0
 62
7
 90
5
 70
1
 10
23.100000
 20
46.026038
 10
22.822163
 20
46.026038
 10
22.822163
 20
44.759163
 10
23.377838
 20
44.759163
 10
23.377838
 20
46.026038
  0
LWPOLYLINE
  8
0
 62
7
 90
5
 70
1
 10
22.300000
 20
46.026038
 10
22.022163
 20
46.026038
 10
22.022163
 20
44.759163
 10
22.577838
 20
44.759163
 10
22.577838
 20
46.026038
  0
LWPOLYLINE
  8
0
 62
7
 90
5
 70
1
 10
21.500000
 20
46.026038
 10
21.222162
 20
46.026038
 10
21.222162
 20
44.759163
 10
21.777838
 20
44.759163
 10
21.777838
 20
46.026038
  0
LWPOLYLINE
  8
0
 62
7
 90
5
 70
1
 10
20.700000
 20
46.026038
 10
20.422162
 20
46.026038
 10
20.422162
 20
44.759163
 10
20.977837
 20
44.759163
 10
20.977837
 20
46.026038
  0
LWPOLYLINE
  8
0
 62
7
 90
5
 70
1
 10
19.207400
 20
44.177837
 10
18.573963
 20
44.177837
 10
18.573963
 20
43.622163
 10
19.840837
 20
43.622163
 10
19.840837
 20
44.177837
  0
LWPOLYLINE
  8
0
 62
7
 90
5
 70
1
 10
19.207400
 20
43.377837
 10
18.573963
 20
43.377837
 10
18.573963
 20
42.822163
 10
19.840837
 20
42.822163
 10
19.840837
 20
43.377837
  0
LWPOLYLINE
  8
0
 62
7
 90
5
 70
1
 10
19.207400
 20
42.577837
 10
18.573963
 20
42.577837
 10
18.573963
 20
42.022163
 10
19.840837
 20
42.022163
 10
19.840837
 20
42.577837
  0
LWPOLYLINE
  8
0
 62
7
 90
5
 70
1
 10
19.207400
 20
41.777837
 10
18.573963
 20
41.777837
 10
18.573963
 20
41.222163
 10
19.840837
 20
41.222163
 10
19.840837
 20
41.777837
  0
LWPOLYLINE
  8
0
 62
7
 90
5
 70
1
 10
19.207400
 20
40.977837
 10
18.573963
 20
40.977837
 10
18.573963
 20
40.422163
 10
19.840837
 20
40.422163
 10
19.840837
 20
40.977837
  0
LWPOLYLINE
  8
0
 62
7
 90
5
 70
1
 10
19.207400
 20
40.177837
 10
18.573963
 20
40.177837
 10
18.573963
 20
39.622163
 10
19.840837
 20
39.622163
 10
19.840837
 20
40.177837
  0
LWPOLYLINE
  8
0
 62
7
 90
5
 70
1
 10
19.207400
 20
39.377837
 10
18.573963
 20
39.377837
 10
18.573963
 20
38.822163
 10
19.840837
 20
38.822163
 10
19.840837
 20
39.377837
  0
LWPOLYLINE
  8
0
 62
7
 90
5
 70
1
 10
19.207400
 20
38.577837
 10
18.573963
 20
38.577837
 10
18.573963
 20
38.022163
 10
19.840837
 20
38.022163
 10
19.840837
 20
38.577837
  0
LWPOLYLINE
  8
0
 62
7
 90
5
 70
1
 10
45.000000
 20
70.398438
 10
44.101562
 20
70.398438
 10
44.101562
 20
68.801562
 10
45.898438
 20
68.801562
 10
45.898438
 20
70.398438
  0
LWPOLYLINE
  8
0
 62
7
 90
5
 70
1
 10
45.000000
 20
73.198438
 10
44.101562
 20
73.198438
 10
44.101562
 20
71.601562
 10
45.898438
 20
71.601562
 10
45.898438
 20
73.198438
  0
LWPOLYLINE
  8
0
 62
7
 90
5
 70
1
 10
45.000000
 20
58.398438
 10
44.101562
 20
58.398438
 10
44.101562
 20
56.801563
 10
45.898438
 20
56.801563
 10
45.898438
 20
58.398438
  0
LWPOLYLINE
  8
0
 62
7
 90
5
 70
1
 10
45.000000
 20
61.198437
 10
44.101562
 20
61.198437
 10
44.101562
 20
59.601562
 10
45.898438
 20
59.601562
 10
45.898438
 20
61.198437
  0
LWPOLYLINE
  8
0
 62
7
 90
5
 70
1
 10
45.000000
 20
46.398438
 10
44.101562
 20
46.398438
 10
44.101562
 20
44.801563
 10
45.898438
 20
44.801563
 10
45.898438
 20
46.398438
  0
LWPOLYLINE
  8
0
 62
7
 90
5
 70
1
 10
45.000000
 20
49.198437
 10
44.101562
 20
49.198437
 10
44.101562
 20
47.601562
 10
45.898438
 20
47.601562
 10
45.898438
 20
49.198437
  0
LWPOLYLINE
  8
0
 62
7
 90
5
 70
1
 10
51.000000
 20
22.398438
 10
50.101562
 20
22.398438
 10
50.101562
 20
20.801563
 10
51.898438
 20
20.801563
 10
51.898438
 20
22.398438
  0
LWPOLYLINE
  8
0
 62
7
 90
5
 70
1
 10
51.000000
 20
25.198437
 10
50.101562
 20
25.198437
 10
50.101562
 20
23.601562
 10
51.898438
 20
23.601562
 10
51.898438
 20
25.198437
  0
LWPOLYLINE
  8
0
 62
7
 90
5
 70
1
 10
51.000000
 20
9.398438
 10
50.101562
 20
9.398438
 10
50.101562
 20
7.801562
 10
51.898438
 20
7.801562
 10
51.898438
 20
9.398438
  0
LWPOLYLINE
  8
0
 62
7
 90
5
 70
1
 10
51.000000
 20
12.198438
 10
50.101562
 20
12.198438
 10
50.101562
 20
10.601562
 10
51.898438
 20
10.601562
 10
51.898438
 20
12.198438
  0
LWPOLYLINE
  8
0
 62
7
 90
5
 70
1
 10
11.398438
 20
40.000000
 10
11.398438
 20
40.898438
 10
9.801562
 20
40.898438
 10
9.801562
 20
39.101562
 10
11.398438
 20
39.101562
  0
LWPOLYLINE
  8
0
 62
7
 90
5
 70
1
 10
14.198438
 20
40.000000
 10
14.198438
 20
40.898438
 10
12.601562
 20
40.898438
 10
12.601562
 20
39.101562
 10
14.198438
 20
39.101562
  0
LWPOLYLINE
  8
0
 62
7
 90
5
 70
1
 10
11.398438
 20
34.000000
 10
11.398438
 20
34.898438
 10
9.801562
 20
34.898438
 10
9.801562
 20
33.101562
 10
11.398438
 20
33.101562
  0
LWPOLYLINE
  8
0
 62
7
 90
5
 70
1
 10
14.198438
 20
34.000000
 10
14.198438
 20
34.898438
 10
12.601562
 20
34.898438
 10
12.601562
 20
33.101562
 10
14.198438
 20
33.101562
  0
LWPOLYLINE
  8
0
 62
7
 90
5
 70
1
 10
62.601562
 20
4.900000
 10
62.601562
 20
4.001563
 10
64.198437
 20
4.001563
 10
64.198437
 20
5.798438
 10
62.601562
 20
5.798438
  0
LWPOLYLINE
  8
0
 62
7
 90
5
 70
1
 10
59.801563
 20
4.900000
 10
59.801563
 20
4.001563
 10
61.398438
 20
4.001563
 10
61.398438
 20
5.798438
 10
59.801563
 20
5.798438
  0
LWPOLYLINE
  8
0
 62
7
 90
5
 70
1
 10
62.601562
 20
2.400000
 10
62.601562
 20
1.501562
 10
64.198437
 20
1.501562
 10
64.198437
 20
3.298437
 10
62.601562
 20
3.298437
  0
LWPOLYLINE
  8
0
 62
7
 90
5
 70
1
 10
59.801563
 20
2.400000
 10
59.801563
 20
1.501562
 10
61.398438
 20
1.501562
 10
61.398438
 20
3.298437
 10
59.801563
 20
3.298437
  0
LWPOLYLINE
  8
0
 62
7
 90
5
 70
1
 10
70.601562
 20
4.900000
 10
70.601562
 20
4.001563
 10
72.198438
 20
4.001563
 10
72.198438
 20
5.798438
 10
70.601562
 20
5.798438
  0
LWPOLYLINE
  8
0
 62
7
 90
5
 70
1
 10
67.801562
 20
4.900000
 10
67.801562
 20
4.001563
 10
69.398438
 20
4.001563
 10
69.398438
 20
5.798438
 10
67.801562
 20
5.798438
  0
LWPOLYLINE
  8
0
 62
7
 90
5
 70
1
 10
70.601562
 20
2.400000
 10
70.601562
 20
1.501562
 10
72.198438
 20
1.501562
 10
72.198438
 20
3.298437
 10
70.601562
 20
3.298437
  0
LWPOLYLINE
  8
0
 62
7
 90
5
 70
1
 10
67.801562
 20
2.400000
 10
67.801562
 20
1.501562
 10
69.398438
 20
1.501562
 10
69.398438
 20
3.298437
 10
67.801562
 20
3.298437
  0
ENDSEC
  0
EOF
